# Blender v2.81 (sub 16) OBJ File: 'Box.blend'
# www.blender.org
mtllib Box.mtl
v -438.818817 2.155181 -1.000000
v -438.818817 0.155181 -1.000000
v -438.818817 2.155181 1.000000
v -438.818817 0.155181 1.000000
v -440.818817 2.155181 -1.000000
v -440.818817 0.155181 -1.000000
v -440.818817 2.155181 1.000000
v -440.818817 0.155181 1.000000
v -440.818817 0.155181 0.000840
v -438.818817 0.155181 0.000840
v -440.818817 2.155181 -0.009070
v -438.818817 0.155181 -0.009070
v -440.818817 0.155181 -0.009071
v -438.818817 2.155181 -0.009071
v -440.818817 0.155181 0.008719
v -438.818817 2.155181 0.008719
v -440.818817 2.155181 0.008719
v -438.818817 0.155181 0.008719
v -439.818817 0.155181 -1.000000
v -439.818817 2.155181 1.000000
v -439.818817 0.155181 1.000000
v -439.818817 2.155181 -1.000000
v -439.818817 0.155181 0.000840
v -439.818817 2.155181 -0.009070
v -439.818817 0.155181 -0.009070
v -439.818817 0.155181 0.008719
v -439.818817 2.155181 0.008719
v -438.818817 2.148579 -1.000000
v -440.818817 2.148579 1.000000
v -438.818817 2.148579 1.000000
v -440.818817 2.148579 -1.000000
v -439.818817 2.148579 -1.000000
v -439.818817 2.148579 1.000000
v -438.818817 2.146889 -1.000000
v -438.818817 2.146889 1.000000
v -440.818817 2.146889 -1.000000
v -438.818817 2.146889 0.000840
v -440.818817 2.146889 0.000840
v -438.818817 2.146889 -0.009071
v -440.818817 2.146889 -0.009070
v -440.818817 2.146889 0.008719
v -438.818817 2.146889 0.008719
v -439.818817 2.146889 -1.000000
v -439.818817 2.146889 1.000000
v -440.818817 2.146889 1.000000
vt 0.750000 0.641534
vt 0.875000 0.641534
vt 0.875000 0.750000
vt 0.750000 0.750000
vt 0.624175 0.875000
vt 0.625000 0.875000
vt 0.625000 1.000000
vt 0.624175 1.000000
vt 0.250000 0.641534
vt 0.375000 0.641534
vt 0.375000 0.750000
vt 0.250000 0.750000
vt 0.624175 0.375000
vt 0.625000 0.375000
vt 0.625000 0.500000
vt 0.624175 0.500000
vt 0.250000 0.618270
vt 0.375000 0.618270
vt 0.375000 0.629731
vt 0.250000 0.629731
vt 0.750000 0.500000
vt 0.875000 0.500000
vt 0.875000 0.618270
vt 0.750000 0.618270
vt 0.250000 0.500000
vt 0.375000 0.500000
vt 0.125000 0.629731
vt 0.125000 0.641534
vt 0.125000 0.500000
vt 0.125000 0.618270
vt 0.625000 0.618270
vt 0.624175 0.250000
vt 0.625000 0.250000
vt 0.125000 0.750000
vt 0.624175 0.750000
vt 0.625000 0.750000
vt 0.625000 0.641534
vt 0.623570 0.750000
vt 0.623570 0.875000
vt 0.623570 0.250000
vt 0.623570 0.375000
vt 0.623570 0.500000
vt 0.623570 1.000000
vt 0.375000 0.875000
vt 0.375000 1.000000
vt 0.375000 0.131731
vt 0.623570 0.131731
vt 0.375000 0.250000
vt 0.623570 0.641534
vt 0.375000 0.375000
vt 0.623570 0.618270
vt 0.623570 0.629731
vt 0.375000 0.108466
vt 0.623570 0.108466
vt 0.623570 0.120269
vt 0.375000 0.120269
vt 0.375000 0.000000
vt 0.623570 0.000000
vn 0.0000 1.0000 0.0000
vn 0.0000 0.0000 1.0000
vn 0.0000 -1.0000 0.0000
vn 0.0000 0.0000 -1.0000
vn -1.0000 -0.0000 0.0000
vn 1.0000 0.0000 0.0000
usemtl Material.001
s off
f 27/1/1 17/2/1 7/3/1 20/4/1
f 33/5/2 20/6/2 7/7/2 29/8/2
f 26/9/3 18/10/3 4/11/3 21/12/3
f 32/13/4 22/14/4 1/15/4 28/16/4
f 25/17/3 12/18/3 10/19/3 23/20/3
f 22/21/1 5/22/1 11/23/1 24/24/1
f 19/25/3 2/26/3 12/18/3 25/17/3
f 23/20/3 10/19/3 18/10/3 26/9/3
f 9/27/3 23/20/3 26/9/3 15/28/3
f 6/29/3 19/25/3 25/17/3 13/30/3
f 1/15/1 22/21/1 24/24/1 14/31/1
f 13/30/3 25/17/3 23/20/3 9/27/3
f 31/32/4 5/33/4 22/14/4 32/13/4
f 15/28/3 26/9/3 21/12/3 8/34/3
f 30/35/2 3/36/2 20/6/2 33/5/2
f 16/37/1 27/1/1 20/4/1 3/36/1
f 35/38/2 30/35/2 33/5/2 44/39/2
f 36/40/4 31/32/4 32/13/4 43/41/4
f 43/41/4 32/13/4 28/16/4 34/42/4
f 44/39/2 33/5/2 29/8/2 45/43/2
f 21/44/2 44/39/2 45/43/2 8/45/2
f 13/46/5 40/47/5 36/40/5 6/48/5
f 18/10/6 42/49/6 35/38/6 4/11/6
f 19/50/4 43/41/4 34/42/4 2/26/4
f 12/18/6 39/51/6 37/52/6 10/19/6
f 15/53/5 41/54/5 38/55/5 9/56/5
f 2/26/6 34/42/6 39/51/6 12/18/6
f 9/56/5 38/55/5 40/47/5 13/46/5
f 8/57/5 45/58/5 41/54/5 15/53/5
f 10/19/6 37/52/6 42/49/6 18/10/6
f 6/48/4 36/40/4 43/41/4 19/50/4
f 4/11/2 35/38/2 44/39/2 21/44/2
